<?xml version="1.0" standalone="no"?>
<!DOCTYPE svg PUBLIC "-//W3C//DTD SVG 20010904//EN"
 "http://www.w3.org/TR/2001/REC-SVG-20010904/DTD/svg10.dtd">
<svg version="1.0" xmlns="http://www.w3.org/2000/svg"
 width="16.000000pt" height="16.000000pt" viewBox="0 0 16.000000 16.000000"
 preserveAspectRatio="xMidYMid meet">

<g transform="translate(0.000000,16.000000) scale(0.100000,-0.100000)"
fill="#000000" stroke="none">
<path d="M21 81 l-23 -18 27 -21 c35 -28 75 -28 110 0 l27 21 -23 18 c-31 24
-87 24 -118 0z m84 -21 c0 -18 -6 -26 -23 -28 -24 -4 -38 18 -28 44 3 9 15 14
28 12 17 -2 23 -10 23 -28z m-65 -2 c0 -16 -3 -19 -11 -11 -6 6 -8 16 -5 22
11 17 16 13 16 -11z m92 -10 c-9 -9 -12 -7 -12 12 0 19 3 21 12 12 9 -9 9 -15
0 -24z"/>
<path d="M70 60 c0 -5 5 -10 10 -10 6 0 10 5 10 10 0 6 -4 10 -10 10 -5 0 -10
-4 -10 -10z"/>
</g>
</svg>
